<?xml version="1.0" standalone="no"?><!DOCTYPE svg PUBLIC "-//W3C//DTD SVG 1.1//EN" "http://www.w3.org/Graphics/SVG/1.1/DTD/svg11.dtd"><svg class="icon" width="32px" height="32.00px" viewBox="0 0 1024 1024" version="1.1" xmlns="http://www.w3.org/2000/svg"><path d="M716.8 0 307.2 0C138.24 0 0 138.24 0 307.2l0 69.12 0 0c0 0 0 0 0 0 0 15.36 10.24 25.6 25.6 25.6 15.36 0 25.6-10.24 25.6-25.6 0 0 0 0 0 0l0 0L51.2 307.2C51.2 166.4 166.4 51.2 307.2 51.2L716.8 51.2c140.8 0 256 115.2 256 256L972.8 716.8c0 140.8-115.2 256-256 256L307.2 972.8C166.4 972.8 51.2 857.6 51.2 716.8l0-128 166.4 0c10.24 0 17.92-5.12 23.04-15.36l38.4-81.92 120.32 284.16c5.12 10.24 12.8 15.36 23.04 15.36 0 0 0 0 0 0 10.24 0 20.48-7.68 23.04-17.92l145.92-427.52 69.12 225.28c2.56 10.24 12.8 17.92 25.6 17.92l230.4 0c15.36 0 25.6-10.24 25.6-25.6s-10.24-25.6-25.6-25.6l-209.92 0-87.04-281.6c-2.56-10.24-12.8-17.92-23.04-17.92 0 0 0 0 0 0-10.24 0-20.48 7.68-23.04 17.92L419.84 691.2l-117.76-276.48c-5.12-10.24-12.8-15.36-23.04-15.36-10.24 0-20.48 5.12-23.04 15.36l-53.76 120.32-199.68 0 0 179.2c0 171.52 138.24 307.2 307.2 307.2L716.8 1021.44c171.52 0 307.2-138.24 307.2-307.2L1024 307.2C1024 138.24 885.76 0 716.8 0z" fill="#bfbfbf" /></svg>